<?xml version="1.0" encoding="UTF-8"?>
<!-- Generated by Pixelmator Pro 3.7 -->
<svg width="256" height="256" viewBox="0 0 256 256" xmlns="http://www.w3.org/2000/svg">
    <path id="Path" fill="none" stroke="#d85b1d" stroke-width="16" stroke-linecap="round" stroke-linejoin="round" d="M 88 76 L 88 44 C 88 32.9543 96.954308 24 108 24 C 119.045692 24 128 32.9543 128 44 L 128 104"/>
    <path id="path1" fill="none" stroke="#d85b1d" stroke-width="16" stroke-linecap="round" stroke-linejoin="round" d="M 128 60 C 128 48.9543 136.9543 40 148 40 C 159.0457 40 168 48.9543 168 60 L 168 120"/>
    <path id="path2" fill="none" stroke="#d85b1d" stroke-width="16" stroke-linecap="round" stroke-linejoin="round" d="M 168 120 L 168 116 C 168 104.954315 176.9543 96 188 96 C 199.0457 96 208 104.954315 208 116 L 208 152 C 208 196.182785 172.182785 232 128 232 C 83.817223 232 48 196.182785 48 152 L 48 76 C 48 64.954315 56.954304 56 68 56 C 79.045692 56 88 64.954315 88 76 L 88 112"/>
    <path id="path3" fill="#d85b1d" stroke="#d85b1d" stroke-width="16" stroke-linecap="round" stroke-linejoin="round" d="M 140 168 C 140 174.627411 134.627411 180 128 180 C 121.372581 180 116 174.627411 116 168 C 116 161.372589 121.372581 156 128 156 C 134.627411 156 140 161.372589 140 168 Z"/>
    <path id="path4" fill="none" stroke="#d85b1d" stroke-width="16" stroke-linecap="round" stroke-linejoin="round" d="M 80 168 C 80 168 96 136 128 136 C 160 136 176 168 176 168 C 176 168 160 200 128 200 C 96 200 80 168 80 168 Z"/>
</svg>
